<svg version="1.2" xmlns="http://www.w3.org/2000/svg" viewBox="0 0 1024 1024" width="1024" height="1024">
	<title>feedback-icon</title>
	<style>
		.s0 { fill: #fefefe } 
		.s1 { opacity: 1;fill: #02090a } 
	</style>
	<g id="Layer 1">
		<path id="Path 1" class="s0" d="m442.5 98.5c-8.8 1.3-22.3 3.8-30 5.5-7.7 1.8-20.8 5.2-29 7.6-8.3 2.4-21.1 6.7-28.5 9.5-7.4 2.9-19.4 7.8-26.5 11.1-7.1 3.2-18.4 8.8-25 12.4-6.6 3.7-19 11.3-27.5 16.9-8.5 5.7-20.4 14.2-26.5 18.9-6.1 4.8-15.9 13-21.9 18.4-6 5.3-15.6 14.6-21.4 20.7-5.8 6.1-15.2 16.6-21 23.5-5.7 6.9-14.2 18-19 24.7-4.8 6.8-12.4 18.5-17 26-4.5 7.6-10.5 18.1-13.1 23.3-2.7 5.2-7.7 16-11.1 24-3.4 8-8.6 21.5-11.5 30-2.9 8.5-7.1 22.7-9.3 31.5-2.3 8.8-5 21.2-6.2 27.5-1.1 6.3-2.7 16.7-3.5 23-1.1 8.5-1.5 21.4-1.5 49 0 27.1 0.4 40.8 1.5 49.5 0.8 6.6 2.4 17.2 3.5 23.5 1.2 6.3 3.9 18.7 6.2 27.5 2.2 8.8 6.4 23 9.3 31.5 2.9 8.5 8.1 22 11.5 30 3.4 8 7.8 17.6 9.7 21.5 2 3.9 6.3 11.7 9.6 17.5 3.3 5.8 9.4 15.7 13.5 22 4.1 6.3 10.2 15.1 13.5 19.5 3.3 4.4 10.2 13 15.2 19 5 6 13.9 15.9 19.6 21.9 5.7 6 16.2 16.1 23.4 22.4 7.2 6.3 18.2 15.3 24.5 20.2 6.3 4.8 17.4 12.6 24.5 17.2 7.1 4.7 18.4 11.5 25 15.1 6.6 3.7 17.9 9.3 25 12.5 7.1 3.3 19.1 8.2 26.5 11 7.4 2.9 18.7 6.7 25 8.6 6.3 1.9 16.1 4.6 21.8 6 5.6 1.4 11.6 2.6 13.2 2.6 1.6 0 4.7 0.7 6.7 1.5 2.1 0.9 11.8 2.7 21.5 4 16.5 2.3 20.7 2.5 56.5 2.5 35.6 0 40.2-0.2 55.8-2.4 9.4-1.4 23.3-3.9 31-5.6 7.7-1.8 15.1-3.8 16.5-4.5 1.4-0.7 5.2-1.8 8.5-2.4 3.3-0.6 9.4-2.2 13.5-3.5 4.1-1.3 11.3-3.8 16-5.5 4.7-1.8 13.9-5.5 20.5-8.3 6.6-2.9 13.6-6.2 15.5-7.5 1.9-1.3 5.1-2.9 7-3.5 1.9-0.6 8-3.5 13.5-6.6 5.5-3 17-10.1 25.5-15.8 8.5-5.6 20.3-14 26.2-18.6 5.8-4.6 16.2-13.4 23-19.7 6.7-6.2 13.7-13 15.3-15.2 1.6-2.1 3.7-4 4.5-4.3 0.8-0.3 5.6-5.1 10.7-10.8 5.1-5.7 12.6-14.6 16.8-19.8 4.2-5.2 10.9-14.2 15-20 4-5.8 11-16.6 15.5-24 4.5-7.4 11.4-20.2 15.4-28.5 4.1-8.2 9.6-20.6 12.4-27.5 2.7-6.9 7.1-19 9.7-27 2.6-8 6.4-21.7 8.5-30.5 2.2-8.8 4.6-20.3 5.5-25.5 0.9-5.2 2.3-14.7 3.1-21 1-8.1 1.4-22.5 1.4-48.5 0-26-0.4-40.4-1.4-48.5-0.8-6.3-2.2-15.8-3.1-21-0.9-5.2-3.3-16.7-5.5-25.5-2.1-8.8-5.7-21.9-8-29-2.3-7.1-6.7-19.3-9.7-27-3-7.7-8.8-20.7-12.8-29-4.1-8.2-11.1-21.2-15.7-28.8-4.6-7.5-12.2-19.2-17-26-4.8-6.7-13.3-17.8-19-24.7-5.8-6.9-15.2-17.4-21-23.5-5.8-6-15.4-15.4-21.4-20.7-6-5.4-15.9-13.6-21.9-18.4-6-4.7-18-13.2-26.5-18.9-8.5-5.6-20.9-13.2-27.5-16.9-6.6-3.6-17.9-9.2-25-12.4-7.1-3.3-19.1-8.2-26.5-11.1-7.4-2.8-20.3-7.1-28.5-9.5-8.3-2.4-21.3-5.8-29-7.6-7.7-1.7-21.6-4.2-31-5.6-15.8-2.2-19.8-2.4-57-2.3-36.4 0.1-41.5 0.3-56 2.4z"/>
		<path id="Path 2" fill-rule="evenodd" class="s1" d="m325 190.5c6.7 0.2 14.6 1.2 19 2.3 4.1 1.1 10.9 3.4 15 5.2 4.1 1.8 10.6 5.3 14.5 7.9 3.9 2.5 10 7.5 13.6 11.1 3.6 3.6 8.5 9.4 10.9 13 2.4 3.6 6.1 10.1 8.2 14.5 2.1 4.4 4.6 11.4 5.7 15.5 1.1 4.1 2.2 11.8 2.6 17 0.5 5.8 0.3 13-0.4 18.5-0.7 4.9-2.7 13.5-4.6 19-1.9 5.5-5.6 13.6-8.2 17.9-2.9 4.8-8.4 11.6-13.8 17.1-5.2 5.2-12.2 11-16.5 13.7-4.1 2.5-11.1 6-15.5 7.7-4.4 1.7-10.9 3.7-14.5 4.5-3.8 0.9-11.3 1.6-18.3 1.6-6.7 0-15-0.7-19.4-1.6-4.3-0.8-11.6-3.1-16.3-5-4.7-1.9-10.9-4.9-13.8-6.7-2.9-1.7-7.9-5.3-11-7.8-3.1-2.5-8.7-8.3-12.5-13-3.7-4.6-8.5-12-10.7-16.4-2.1-4.4-5.1-12.1-6.5-17-1.9-6.5-2.8-12.4-3.2-21-0.4-7.7-0.2-14.9 0.7-20 0.7-4.4 2.3-10.9 3.5-14.5 1.2-3.6 3.7-9.4 5.5-13 1.8-3.6 5-9 7-12 2.1-3 7.1-8.7 11.1-12.6 4.1-3.9 9.4-8.4 11.9-10.1 2.5-1.7 7.9-4.7 12-6.7 4.1-2 10.4-4.5 14-5.6 3.6-1.1 9.2-2.4 12.5-2.9 3.3-0.6 11.2-0.8 17.5-0.6zm187 30c21.1 0.2 26.5 0.6 39 2.9 8 1.4 20.4 4.1 27.5 6.1 7.1 2 19.8 6.3 28 9.6 8.3 3.2 20.6 9 27.5 12.7 6.9 3.8 16.3 9.4 21 12.5 4.7 3.1 12.3 8.6 17 12.3 4.7 3.7 15.9 14.2 25 23.3 9.1 9.1 19.9 21.1 24.1 26.6 4.2 5.5 10.6 14.5 14.2 20 3.5 5.5 9.1 14.7 12.3 20.5 3.1 5.8 8 15.7 10.7 22 2.7 6.3 6.5 16 8.4 21.5 1.9 5.5 5 16.1 6.8 23.5 1.9 7.4 4.1 17.8 4.8 23 0.8 5.2 2 13.3 2.7 18 0.8 5.7 1.1 15.9 0.8 31-0.5 18.8-1 24.8-3.2 36.5-1.5 7.7-3.8 18.3-5.1 23.5-1.3 5.2-4 14.2-6 20-2 5.8-6.5 16.6-10.1 24-3.6 7.4-9.6 18.7-13.3 25-3.8 6.3-10.4 16.2-14.7 22-4.4 5.7-14.4 17.2-22.4 25.4-8 8.2-19.2 18.7-25 23.3-5.8 4.6-14.1 10.8-18.5 13.7-4.4 3-13 8.1-19 11.5-6 3.4-16 8.2-22 10.8-6 2.5-17.5 6.7-25.5 9.4-8 2.6-21.3 6.1-29.5 7.8-8.3 1.7-18.8 3.5-23.5 4.1-4.7 0.7-17 1.3-27.5 1.5-11.3 0.1-23.6-0.3-30.5-1.1-6.3-0.7-14.4-1.8-18-2.5-3.6-0.6-11.7-2.4-18-4-6.3-1.5-14.6-3.9-18.5-5.3-3.9-1.3-7.9-2.7-9-3.1-1.6-0.6-1.7-0.5-0.5 0.4 1.3 0.9 1.3 1.1-0.3 1.1-0.9 0-1.7 0.5-1.7 1 0 0.5-1.6 1.5-3.5 2-2.7 0.8-10.2 8-34.4 33.3-16.9 17.7-32.6 33.4-34.7 34.9-2.1 1.5-5.7 3.5-7.9 4.4-2.3 0.9-6.8 1.7-10.5 1.7-5 0.1-7.8-0.5-12-2.5-3-1.5-7-4.2-8.8-6.2-1.7-2-4.2-5.5-7.7-12.1l-1-141-7.2-10c-3.9-5.5-9.5-14-12.3-19-2.9-5-7.4-13.3-10-18.5-2.6-5.2-6.8-14.2-9.3-20-2.4-5.8-5.4-13.6-6.7-17.5-1.2-3.9-3.2-11.3-4.5-16.5-1.3-5.2-3-13.3-3.9-18-0.8-4.7-1.8-10.3-2.1-12.5-0.3-2.2-1-9.9-1.4-17-0.5-7.1-0.5-22.4-0.1-34 0.6-16.5 1.3-23.7 3.4-33.5 1.4-6.9 4-17.4 5.7-23.5 1.7-6.1 4.6-15.3 6.6-20.5 1.9-5.2 4.8-12.1 9.3-21l14.3 8.6c7.8 4.7 14.4 8.8 14.7 9 0.3 0.2-1.4 4.8-3.7 10.1-2.3 5.4-5.5 14.5-7.2 20.3-1.8 5.8-4 15-5.1 20.5-1 5.5-2.4 16.5-3.1 24.5-0.6 8.2-0.9 21.4-0.6 30.5 0.4 10 1.5 21.4 3.1 30.5 1.4 8 3.9 19.2 5.6 25 1.8 5.8 4.8 14.5 6.7 19.5 2 5 5.8 13.5 8.6 19 2.7 5.5 7.7 14.3 11 19.5 3.2 5.2 9.2 14 13.2 19.5 4 5.5 7.9 11.1 8.6 12.5 1.1 2 1.5 14.7 2.4 131.8l14.5-16.1c8-8.8 23.5-25.8 34.6-37.6 11-11.9 20.8-21.9 21.7-22.4 0.9-0.4 3.1-0.7 4.7-0.7 1.6 0 5.6 1.1 8.8 2.4 3.1 1.3 8.8 3.5 12.7 4.9 3.9 1.5 12.9 4.3 20 6.2 7.1 2 18.2 4.5 24.5 5.6 6.3 1.1 18.5 2.3 27 2.6 9 0.3 21.2 0.1 29-0.6 7.4-0.7 18.7-2.3 25-3.7 6.3-1.3 15.5-3.6 20.5-5 5-1.4 13.6-4.3 19.3-6.5 5.6-2.1 14.4-5.8 19.5-8.2 5-2.4 13.5-7 18.7-10.2 5.2-3.3 14-9.3 19.5-13.5 5.5-4.1 15.9-13.4 23.1-20.5 7.1-7.1 16-16.8 19.6-21.5 3.6-4.7 9.1-12.3 12.2-17 3.2-4.7 9-15 13-23 3.9-8 9.3-20.8 11.8-28.5 2.6-7.7 5.8-19.6 7.2-26.5 1.4-6.9 3-18.4 3.7-25.5 0.7-7.7 0.9-19.8 0.6-29.5-0.3-9.1-1.3-21.2-2.2-27-0.9-5.8-2.7-14.8-4-20-1.3-5.2-4.2-14.7-6.4-21-2.1-6.3-5.8-15.8-8.1-21-2.3-5.2-6.1-13.1-8.5-17.5-2.4-4.4-7.4-12.7-11.2-18.5-3.8-5.8-10.6-15-15-20.5-4.4-5.5-13.6-15.4-20.5-22-6.8-6.6-15.5-14.5-19.4-17.7-3.8-3.1-11.4-8.6-16.9-12.3-5.5-3.6-16.5-9.9-24.5-13.9-8-4-20.1-9.1-27-11.4-6.9-2.3-16.3-5.1-21-6.2-4.7-1.2-14.1-3-21-4.1-6.9-1-18.4-2.2-25.5-2.5-7.3-0.4-18.3-0.2-25 0.5-6.6 0.6-17.2 2-23.5 3.1-6.3 1.1-15.8 3.1-21 4.5-5.2 1.3-9.8 2.1-10.1 1.7-0.4-0.4-1.4-3-2.3-5.7-0.8-2.8-3.8-9.4-11.6-24.5l8.2-2.6c4.6-1.4 12.8-3.6 18.3-4.9 5.5-1.3 14.9-3.1 21-3.9 6.1-0.9 12.6-1.7 14.5-2 1.9-0.2 14.5-0.3 28-0.1zm-48 122.6c5.3-0.1 9.4 0.5 14 2.1 3.6 1.2 9.1 4.2 12.2 6.5 3.2 2.4 7.7 6.9 10.1 10 2.3 3.2 5.7 9.3 7.5 13.5 1.7 4.3 3.2 8.4 3.2 9 0 0.9-2.5 1.5-7.7 2-4.3 0.3-11.3 1.8-23.3 5.8l-2.6-5.8c-1.4-3.1-3.4-6.9-6.4-11.2l-2.8 3.1c-1.5 1.8-3.9 3.8-5.5 4.5-1.5 0.8-4.7 1.4-7.2 1.4-2.5 0-5.7-0.6-7.3-1.4-1.5-0.7-4.2-3-6-5-1.8-2.1-3.5-5.2-3.8-7.4-0.4-2-0.5-5.7-0.2-8.2 0.3-2.7 1.6-6.2 3.4-8.9 1.6-2.3 4.5-5.2 6.4-6.4 1.9-1.1 4.6-2.4 6-2.8 1.4-0.4 5.9-0.8 10-0.8zm96.5 0.1c7.6 0.3 9.7 0.8 13.7 3.1 3 1.7 5.9 4.5 7.8 7.4 2.5 4 3 5.8 3 11 0 3.5-0.6 7.5-1.4 9-0.8 1.6-2.7 4-4.3 5.5-1.5 1.5-4 3.2-5.6 3.7-1.5 0.6-4.3 1.1-6.2 1.1-1.9 0-5-0.6-6.8-1.4-1.7-0.7-4.6-2.8-9.5-8.1l-8.4 17-7.6-2.3c-4.2-1.3-11.2-2.6-15.5-3-7.7-0.7-7.8-0.7-7.2-3.2 0.3-1.4 2.3-6.1 4.4-10.5 2.4-5.1 5.9-10.3 9.7-14.4 3.2-3.5 7.9-7.5 10.4-9 2.5-1.4 6.7-3.4 9.5-4.4 3.7-1.3 7.3-1.7 14-1.5zm-184 54.8c1.6 0 4.6 0.4 6.5 1 2.7 0.7 7.7 5.4 21.7 20 10.1 10.4 18.3 19.4 18.3 20 0 0.6-1.5 4-3.4 7.7-1.9 3.8-4.3 10.1-7.6 21.3h-11.5l-19.3-20c-10.5-11-20-21.5-20.9-23.3-0.9-1.8-1.7-5.4-1.6-8.2 0-2.8 0.7-6.4 1.6-8 0.8-1.6 2.6-4 3.9-5.2 1.2-1.2 3.9-2.9 5.8-3.7 1.9-0.8 4.9-1.5 6.5-1.6zm269.5 0.1c1.9 0 5.3 0.8 7.5 1.8 2.2 0.9 5.2 3.2 6.7 4.9 1.6 1.8 3.3 5.1 3.9 7.4 0.6 2.4 0.8 5.7 0.5 7.3-0.3 1.6-1.6 4.7-2.9 6.7-1.2 2-10.4 12.2-38.7 41.8h-11.5l-1.8-5.7c-1.1-3.2-3.8-9.9-10.5-23.8l19.2-19.2c10.5-10.6 20.2-19.7 21.6-20.2 1.4-0.5 4.1-1 6-1zm-132 7.4c4.7 0.3 11.6 1.2 15.5 2 3.9 0.8 11.6 3.7 17.5 6.6 9.3 4.6 11.6 6.3 20 14.8 5.2 5.3 11 12.1 12.7 15.1 1.8 3 4.6 8.6 6.1 12.5 1.6 3.9 3.2 8 4.2 11.5h-78c-73.6 0-78-0.1-78-1.8 0-0.9 1.5-5.1 3.3-9.2 1.8-4.1 4.9-10.2 6.9-13.5 2-3.3 6.7-9.3 10.5-13.4 3.7-4 9.7-9.3 13.3-11.6 3.6-2.4 9.4-5.5 13-6.9 3.6-1.5 10.6-3.5 15.5-4.6 6.7-1.5 11.2-1.9 17.5-1.5zm-133.6 83.5h28.1l-1.1 8.8c-0.6 4.8-1.4 13.1-2.4 28.2h-4.3c-4.1 0-4.5 0.4-16.2 12.7-6.6 6.9-13.4 13.2-15 14.1-1.6 0.8-5.5 1.6-8.7 1.6-4.7 0.1-6.3-0.4-9.9-2.9-2.3-1.6-5.2-4.8-6.3-7q-2.1-4-2.1-9.5c0-4.1 0.6-6.4 2.4-9 1.4-1.9 9.9-11 19-20.3zm234.2 0.1l27.9-0.1 17 17.8c9.4 9.8 17.8 18.9 18.7 20.3 0.9 1.3 1.9 3.8 2.2 5.4 0.4 1.7 0.2 5-0.4 7.3-0.6 2.3-2.5 5.9-4.3 7.9-1.8 2-4.5 4.2-6 5-1.5 0.7-5.7 1.3-15.7 1.3l-14.3-13.9c-12.8-12.6-14.6-14-21.2-14l-1.3-14.8c-0.7-8.1-1.5-16.4-1.9-18.5zm-114.7 1v73.5c0 69.3-0.1 73.5-1.7 73.5-1 0-5.3-1.1-9.5-2.5-4.3-1.4-9.7-3.5-12-4.6-2.4-1.2-7-4.1-10.3-6.4-3.3-2.4-8.7-7.1-12.1-10.6-3.3-3.5-8-9.3-10.4-12.9-2.4-3.6-6.2-10.3-8.3-15-2.2-4.7-5.1-12.8-6.5-18-2-7.9-2.5-12.6-2.9-28-0.3-10.8 0-24.1 0.7-32 0.6-7.4 1.4-14.3 1.6-15.3 0.5-1.6 3.1-1.7 71.4-1.7zm22 0l72.5 0.5 0.8 4.5c0.4 2.5 1 15.3 1.4 28.5 0.4 15.6 0.2 27-0.6 32.5-0.6 4.7-2.3 12.1-3.7 16.5-1.4 4.4-4.3 11.4-6.4 15.5-2.1 4.1-5.9 10.4-8.6 14-2.6 3.6-7.8 9.4-11.4 13-3.7 3.6-10.2 8.6-14.6 11.2-4.3 2.6-11 5.9-14.9 7.2-3.8 1.3-8.7 2.7-14.5 3.6zm-116.6 61.5l1.6 9c0.9 5 2.6 12.1 3.8 15.8 1.2 3.7 2.6 6.5 3.2 6.2 0.5-0.3 1.2 1.2 1.5 3.3 0.3 2 0.6 4.7 0.8 5.9 0.1 1.5-3.9 6.4-14.3 17.4-9.5 9.9-15.9 15.9-18.5 17.1-2.2 1-5.4 1.8-7 1.8-1.7 0-4.8-0.8-7-1.9-2.2-1-5-2.9-6.2-4.2-1.2-1.3-2.9-4.1-3.8-6.1-0.8-2.1-1.5-5.4-1.5-7.3 0-1.9 0.7-5.1 1.5-7 0.8-1.9 5.5-7.9 10.4-13.2 4.9-5.4 14.9-15.9 22.2-23.3zm213 2.5c0.6 0 4.7 3.7 9 8.2 4.4 4.6 13.6 14.2 20.6 21.3 7 7.2 13.7 14.9 14.8 17.3 1.2 2.3 2.2 5.9 2.2 8 0 2-0.9 5.5-1.9 7.7-1 2.2-3.2 5.3-4.9 6.8-1.8 1.5-4.9 3.2-7 3.7-2 0.6-4.7 1-6 1-1.2 0-3.8-0.7-5.7-1.5-1.9-0.8-4.3-2.3-5.3-3.3-0.9-1-6.4-6.8-12.2-12.8-5.8-6-11.9-12.3-16.5-17.3l2.4-5.3c1.3-2.9 3.4-8.7 4.7-12.8 1.4-4.1 3-10.5 3.6-14.2 0.6-3.7 1.6-6.8 2.2-6.8z"/>
		<path id="Path 3" class="s0" d="m359.5 252.1c-2 0.6-11.7 9.6-28.5 26.5l-25.5 25.6c-10.9-11.9-15.6-16.4-17.5-17.7-1.9-1.4-5-2.5-6.8-2.5-1.7 0-4.6 0.7-6.2 1.5-1.6 0.8-3.7 2.9-4.5 4.5-0.8 1.6-1.5 4.4-1.5 6 0 1.6 0.6 4.2 1.4 5.8 0.7 1.5 6.7 7.7 13.2 13.8 6.6 6.1 13.4 11.8 15.2 12.7 1.7 0.9 4.8 1.7 6.7 1.7 1.9 0 5.2-0.7 7.3-1.5q3.7-1.6 31.5-29.3c15.3-15.2 28.5-28.9 29.3-30.4 0.8-1.6 1.4-4 1.4-5.5 0-1.6-0.9-4.3-2-6-1.1-1.8-2.8-3.7-3.7-4.2-1-0.4-2.9-1.1-4.3-1.4-1.4-0.2-3.9-0.1-5.5 0.4z"/>
	</g>
</svg>